# xmcd
#
# Track frame offsets:
#	150
#	18943
#	32468
#	57339
#	80379
#	103156
#	132081
#	156890
#	188929
#	204849
#	233492
#	249763
#	276571
#	297062
#
# Disc length: 4433 seconds
#
# Revision: 1
# Processed by: cddbd v1.4PL0 Copyright (c) Steve Scherf et al.
# Submitted via: audiograbber 1.81.01
#
DISCID=b2114f0e
DTITLE=The London Bluesmasters - TONITE ...
DYEAR=2001
DGENRE=Blues
TTITLE0=Okey Dokey Stomp
TTITLE1=Walking by Myself
TTITLE2=Cold Day in Hell
TTITLE3=Dangerous Mood
TTITLE4=Right as Rain
TTITLE5=Kissing the Blues
TTITLE6=Where is the next one coming from
TTITLE7=Can't be Satisfied
TTITLE8=Having a Real Bad Day
TTITLE9=Born under a Bad Sign
TTITLE10=San José
TTITLE11=I'm just a Man
TTITLE12=My Baby's Loving is oh so Fine
TTITLE13=Muddy Water's Blues
EXTD=Franke and the Bluesmasters\nAll Songs recorded LIVE!
EXTT0=
EXTT1=
EXTT2=
EXTT3=
EXTT4=
EXTT5=
EXTT6=
EXTT7=
EXTT8=
EXTT9=
EXTT10=
EXTT11=
EXTT12=
EXTT13=
PLAYORDER=
